<?xml version="1.0" encoding="UTF-8"?>
<svg version="1.1" xmlns="http://www.w3.org/2000/svg" width="327" height="310">
<path d="M0 0 C2.11106417 1.82451024 4.18768618 3.6831604 6.25 5.5625 C7.18457031 6.41328125 8.11914062 7.2640625 9.08203125 8.140625 C35.60007027 33.48261365 51.22880491 68.47035902 52.46875 105.0859375 C53.00727365 130.10391744 49.01666734 154.79416525 38.25 177.5625 C37.74984375 178.66464844 37.2496875 179.76679688 36.734375 180.90234375 C30.54846262 193.98236876 22.26733015 205.14246311 12.25 215.5625 C11.40824219 216.45582031 10.56648437 217.34914063 9.69921875 218.26953125 C-17.17682291 246.0790389 -53.71275032 261.12723646 -92.2878418 261.86303711 C-130.25601225 262.02313007 -166.04940984 248.65876966 -193.640625 222.49609375 C-195.59815219 220.52395677 -195.59815219 220.52395677 -197.75 219.5625 C-197.75 218.9025 -197.75 218.2425 -197.75 217.5625 C-198.34554687 217.30082031 -198.94109375 217.03914062 -199.5546875 216.76953125 C-203.4965813 214.60219107 -205.936313 211.00684098 -208.75 207.5625 C-209.88308594 206.21865234 -209.88308594 206.21865234 -211.0390625 204.84765625 C-236.87255317 172.98635109 -245.00093664 133.33772963 -241.44970703 93.16552734 C-238.47246177 69.63960078 -229.60855199 47.74476404 -215.75 28.5625 C-215.19828125 27.79808594 -214.6465625 27.03367188 -214.078125 26.24609375 C-201.81329818 9.92219329 -186.9985411 -3.5928888 -169.75 -14.4375 C-169.15912598 -14.81003906 -168.56825195 -15.18257812 -167.95947266 -15.56640625 C-115.89853717 -47.58572771 -45.78739739 -38.34245735 0 0 Z " fill="#0B8FE1" transform="translate(258.75,41.4375)"/>
<path d="M0 0 C38.37045003 0 72.75754554 14.26329467 101 40 C101.93457031 40.85078125 102.86914062 41.7015625 103.83203125 42.578125 C130.35007027 67.92011365 145.97880491 102.90785902 147.21875 139.5234375 C147.75727365 164.54141744 143.76666734 189.23166525 133 212 C132.24976563 213.65322266 132.24976563 213.65322266 131.484375 215.33984375 C125.29846262 228.41986876 117.01733015 239.57996311 107 250 C106.15824219 250.89332031 105.31648437 251.78664063 104.44921875 252.70703125 C79.30101149 278.72869289 44.51476104 294.77235308 8.20068359 296.10253906 C3.22421859 296.15729342 3.22421859 296.15729342 1 296 C0 295 0 295 -0.02363586 291.93925476 C0.01700173 290.54879814 0.06267002 289.15848377 0.11206055 287.76831055 C0.15817345 286.19556175 0.20317873 284.6227802 0.24723816 283.04997253 C0.27137472 282.21003439 0.29551128 281.37009624 0.32037926 280.50470543 C0.45747588 275.09439687 0.50595344 269.6824949 0.56296062 264.27084637 C0.6177311 259.53113772 0.70779982 254.79775863 0.88110352 250.06079102 C2.63997729 227.29526314 2.63997729 227.29526314 -5.56787109 207.00244141 C-9.69856257 202.57058207 -14.18227124 198.80499801 -19.19084167 195.40144348 C-19.78786392 194.93896713 -20.38488617 194.47649078 -21 194 C-21 193.34 -21 192.68 -21 192 C-21.58910156 191.73832031 -22.17820313 191.47664062 -22.78515625 191.20703125 C-25.11785434 189.9357725 -26.60354368 188.59769469 -28.4375 186.6875 C-28.99308594 186.11386719 -29.54867187 185.54023438 -30.12109375 184.94921875 C-30.74113281 184.30597656 -31.36117187 183.66273438 -32 183 C-34.756677 180.2245701 -37.53553494 177.47345613 -40.33203125 174.73828125 C-41.49224929 173.59641694 -42.65240471 172.45448901 -43.8125 171.3125 C-44.7087207 170.44141602 -44.7087207 170.44141602 -45.62304688 169.55273438 C-47.12014673 168.07274424 -48.56488731 166.54017218 -50 165 C-50 164.34 -50 163.68 -50 163 C-50.85851562 162.62875 -50.85851562 162.62875 -51.734375 162.25 C-54.35010611 160.80683801 -56.14773456 159.11783778 -58.25 157 C-58.95640625 156.29875 -59.6628125 155.5975 -60.390625 154.875 C-62 153 -62 153 -62 151 C-62.90298828 150.60554688 -62.90298828 150.60554688 -63.82421875 150.203125 C-66.1189858 148.93420534 -67.21138351 147.79869084 -68.8125 145.75 C-71.48030593 142.48176717 -74.37462599 139.87286042 -77.6796875 137.26171875 C-78.11539063 136.84535156 -78.55109375 136.42898437 -79 136 C-79 135.34 -79 134.68 -79 134 C-75.993182 135.33999498 -74.00237391 136.79845291 -71.75 139.1875 C-69.2797959 141.73670849 -66.75845477 144.12819493 -64.0625 146.4375 C-60.61578784 149.40605556 -57.40889141 152.54079104 -54.25 155.8125 C-52.4014252 157.6097255 -50.52510756 159.26280828 -48.5625 160.9296875 C-44.80513983 164.19128487 -41.30012423 167.65185 -37.8125 171.1953125 C-37.26126465 171.75442322 -36.7100293 172.31353394 -36.14208984 172.8895874 C-33.84705152 175.22103262 -31.55493057 177.5551688 -29.27246094 179.89892578 C-19.5638251 190.63479005 -19.5638251 190.63479005 -6.83984375 196.62890625 C0.82901931 196.45344101 5.63393966 195.36606034 11.10546875 189.89453125 C15.06296716 185.61007945 18.72652678 181.11006127 22.375 176.5625 C26.42717481 171.54687104 30.85415024 167.04905945 35.44921875 162.54296875 C38.13515944 159.86525452 40.61754364 157.08552031 43.078125 154.203125 C45.55141256 151.36789292 48.12183161 148.62620227 50.6875 145.875 C55.49597868 140.70414541 60.13306193 135.40963221 64.703125 130.02758789 C67.64273006 126.56920055 70.62957132 123.1677273 73.6875 119.8125 C78.32248207 114.69716524 82.71446689 109.4105929 87 104 C87.70189453 103.15308594 87.70189453 103.15308594 88.41796875 102.2890625 C91.506092 98.25332021 92.21680943 93.9692722 92 89 C90.26519986 83.21733286 87.41643935 79.03100428 82.16015625 75.90625 C77.78522038 74.07083387 73.61019143 74.01910821 69 75 C62.28376839 79.15766719 57.52494449 85.64498099 52.6875 91.76953125 C48.6882962 96.69757221 44.22778632 101.22424092 39.84716797 105.81054688 C33.82528932 112.12498042 28.11321489 118.66993668 22.47338867 125.32543945 C18.34478639 130.19288026 14.20994368 134.91630089 9.59765625 139.3359375 C6.93368572 142.11063541 4.67740236 145.19559639 2.3828125 148.27734375 C1.69832031 149.13005859 1.69832031 149.13005859 1 150 C0.67 150 0.34 150 0 150 C0 100.5 0 51 0 0 Z " fill="#172142" transform="translate(164,7)"/>
<path d="M0 0 C5.77237305 1.22076797 9.93069793 4.49918361 13.7890625 8.83984375 C15.7992546 14.36787204 16.8740114 20.05215057 14.4140625 25.58984375 C11.92361251 29.8604092 8.57124237 33.36622578 5.20703125 36.9609375 C2.82513324 39.55062629 0.61404483 42.21980296 -1.5859375 44.96484375 C-5.7500656 50.11176432 -10.1617754 54.97259081 -14.66015625 59.82421875 C-16.69495633 62.03040322 -18.68739988 64.25616636 -20.6484375 66.52734375 C-24.23098559 70.65973136 -27.95060878 74.66077165 -31.66772461 78.67163086 C-34.70835344 81.95486558 -37.72506246 85.25652143 -40.7109375 88.58984375 C-44.21448472 92.50107646 -47.76693222 96.36353803 -51.3359375 100.21484375 C-58.67617336 108.04902555 -58.67617336 108.04902555 -65.53125 116.30078125 C-69.09843918 120.89998743 -72.11226874 123.15160345 -77.9453125 123.9765625 C-85.95050979 124.43371209 -90.07232781 122.63444379 -96.2109375 117.58984375 C-101.18506745 113.02748047 -105.87278293 108.16818991 -110.5859375 103.33984375 C-112.48947109 101.40115763 -114.3951937 99.46469329 -116.30361938 97.53082275 C-117.48328339 96.33427251 -118.6598406 95.13464914 -119.83285522 93.93157959 C-122.1967259 91.52429116 -124.39304911 89.46843601 -127.2109375 87.58984375 C-127.2109375 86.92984375 -127.2109375 86.26984375 -127.2109375 85.58984375 C-128.02304688 85.27080078 -128.02304688 85.27080078 -128.8515625 84.9453125 C-132.06418209 83.09965191 -134.41643945 80.55020446 -136.9609375 77.90234375 C-140.32454539 74.4654147 -143.67027061 71.08440108 -147.3359375 67.96484375 C-150.50029281 65.25159151 -153.53278798 62.43168304 -156.5234375 59.52734375 C-157.34457031 58.73199219 -158.16570312 57.93664062 -159.01171875 57.1171875 C-161.88284838 53.81768328 -164.01940073 50.67933575 -164.42578125 46.24609375 C-163.53570537 39.32606717 -160.89762262 33.93653543 -155.23828125 29.515625 C-150.54689673 27.37331646 -145.153867 27.48701623 -140.2109375 28.58984375 C-134.04064833 32.15089667 -129.12762019 37.45221328 -124.2109375 42.52734375 C-119.61959667 47.23974532 -114.98039724 51.77712892 -109.97265625 56.04907227 C-108.30130931 57.51080599 -106.68794784 58.93076349 -105.2109375 60.58984375 C-105.2109375 61.24984375 -105.2109375 61.90984375 -105.2109375 62.58984375 C-104.31773804 62.99299805 -104.31773804 62.99299805 -103.40649414 63.40429688 C-101.20437046 64.59338979 -99.81326593 65.76958675 -98.08203125 67.55859375 C-97.24188477 68.41517578 -97.24188477 68.41517578 -96.38476562 69.2890625 C-95.81177734 69.88332031 -95.23878906 70.47757812 -94.6484375 71.08984375 C-93.50362803 72.26918938 -92.35657293 73.44636027 -91.20703125 74.62109375 C-90.70357178 75.14251953 -90.2001123 75.66394531 -89.68139648 76.20117188 C-86.36550909 79.3326292 -83.61582358 80.00252561 -79.2109375 80.58984375 C-79.2109375 79.92984375 -79.2109375 79.26984375 -79.2109375 78.58984375 C-77.90104203 77.23347749 -76.56301436 75.90416628 -75.2109375 74.58984375 C-73.92049816 73.00140604 -72.65030344 71.39635571 -71.3984375 69.77734375 C-68.98705083 66.72529346 -66.57517701 63.84983249 -63.7734375 61.15234375 C-61.02773598 58.4985742 -58.6480045 55.70553893 -56.2734375 52.71484375 C-51.50357934 46.7792027 -46.31610996 41.28462959 -41.05883789 35.77978516 C-35.48062659 29.93136098 -30.16560695 23.89343033 -24.9296875 17.73828125 C-24.13111328 16.80242187 -24.13111328 16.80242187 -23.31640625 15.84765625 C-22.24223154 14.58791851 -21.17193682 13.32486241 -20.10546875 12.05859375 C-9.32201834 -0.52645007 -9.32201834 -0.52645007 0 0 Z " fill="#FAFBFA" transform="translate(241.2109375,80.41015625)"/>
<path d="M0 0 C0.33 49.83 0.66 99.66 1 151 C0.01 151.33 -0.98 151.66 -2 152 C-2 152.66 -2 153.32 -2 154 C-5.60571148 154.3344428 -7.44576269 154.37528295 -10.4921875 152.3125 C-11.27851563 151.549375 -12.06484375 150.78625 -12.875 150 C-14.16083984 148.77023438 -14.16083984 148.77023438 -15.47265625 147.515625 C-16.30667969 146.68546875 -17.14070312 145.8553125 -18 145 C-18.74121094 144.27296875 -19.48242188 143.5459375 -20.24609375 142.796875 C-23.0915182 139.97834492 -25.88826851 137.11432989 -28.6875 134.25 C-30.96253117 131.9638232 -30.96253117 131.9638232 -33.5 130 C-36.21832357 127.82534114 -38.56493053 125.49041195 -41 123 C-42.60281465 121.39448246 -44.20707763 119.79040998 -45.8125 118.1875 C-47.20833333 116.79166667 -48.60416667 115.39583333 -50 114 C-48.68 113.67 -47.36 113.34 -46 113 C-45.67 114.32 -45.34 115.64 -45 117 C-44.401875 117.0825 -43.80375 117.165 -43.1875 117.25 C-40.37067727 118.21576779 -39.52200868 119.48868567 -38 122 C-38 122.66 -38 123.32 -38 124 C-37.319375 124.165 -36.63875 124.33 -35.9375 124.5 C-31.58741895 126.72131799 -29.09364623 130.29339356 -26 134 C-24.3777546 135.70993434 -22.70586575 137.37347684 -21 139 C-20.26910156 139.74894531 -19.53820312 140.49789062 -18.78515625 141.26953125 C-17.94855469 142.08808594 -17.11195313 142.90664062 -16.25 143.75 C-15.47140625 144.52859375 -14.6928125 145.3071875 -13.890625 146.109375 C-10.30908709 148.76253766 -10.30908709 148.76253766 -2 149 C-2 101.15 -2 53.3 -2 4 C-15.70363757 3.64644661 -15.70363757 3.64644661 -24 5 C-25.52046051 5.08987944 -27.0412924 5.17380355 -28.5625 5.25 C-35.42723279 5.90826205 -41.62101872 8.50740385 -48 11 C-49.31677734 11.49886719 -49.31677734 11.49886719 -50.66015625 12.0078125 C-62.890637 15.7621887 -62.890637 15.7621887 -72 23 C-74.47068989 24.34161117 -77.00575376 25.4983024 -79.5546875 26.68359375 C-81.86352003 27.92652756 -83.25901699 29.07712324 -85 31 C-88.66666667 34 -88.66666667 34 -91 34 C-91.268125 34.598125 -91.53625 35.19625 -91.8125 35.8125 C-93.71162349 39.31088537 -95.20036361 40.73345454 -99 42 C-99.515625 42.515625 -100.03125 43.03125 -100.5625 43.5625 C-101.036875 44.036875 -101.51125 44.51125 -102 45 C-102.66 45 -103.32 45 -104 45 C-104.2475 45.515625 -104.495 46.03125 -104.75 46.5625 C-105.36875 47.7690625 -105.36875 47.7690625 -106 49 C-106.598125 50.175625 -107.19625 51.35125 -107.8125 52.5625 C-109.68862311 55.86503881 -111.66501839 57.15698385 -115 59 C-116.32793606 61.06700655 -116.32793606 61.06700655 -117 63 C-117.66 63 -118.32 63 -119 63 C-119.33 65.64 -119.66 68.28 -120 71 C-120.66 71 -121.32 71 -122 71 C-122.0825 71.515625 -122.165 72.03125 -122.25 72.5625 C-123.57576459 76.87123491 -125.802388 80.802388 -129 84 C-130.05926941 86.40638377 -131.0505226 88.80110036 -132 91.25 C-132.26039063 91.90613281 -132.52078125 92.56226562 -132.7890625 93.23828125 C-134.31776201 97.12179565 -135.71678028 101.02695433 -137 105 C-137.66 105 -138.32 105 -139 105 C-139.04898438 105.73605469 -139.09796875 106.47210938 -139.1484375 107.23046875 C-139.22320312 108.20628906 -139.29796875 109.18210937 -139.375 110.1875 C-139.47941406 111.63189453 -139.47941406 111.63189453 -139.5859375 113.10546875 C-140 116 -140 116 -140.98901367 118.35571289 C-144.65991475 127.95714481 -143.29844985 140.51563174 -143.5625 150.75 C-143.60581478 152.33334171 -143.64943256 153.91667515 -143.69335938 155.5 C-143.79905873 159.33324729 -143.9006837 163.16658224 -144 167 C-143.34 167.33 -142.68 167.66 -142 168 C-141.52335974 171.27973895 -141.21130581 174.53079167 -140.96484375 177.83398438 C-140.46505059 182.9403617 -138.99952023 185.73496211 -136 190 C-135.78515625 192.1328125 -135.78515625 192.1328125 -136.0625 194.125 C-136.45668385 203.96317199 -130.31124347 212.55834899 -124.94750977 220.36791992 C-122 224.70410631 -122 224.70410631 -122 228 C-121.34 228 -120.68 228 -120 228 C-119.896875 228.639375 -119.79375 229.27875 -119.6875 229.9375 C-119.460625 230.618125 -119.23375 231.29875 -119 232 C-118.01 232.33 -117.02 232.66 -116 233 C-114.8125 236.0625 -114.8125 236.0625 -114 239 C-124.95468728 234.44740269 -132.68056198 214.72801844 -137.0546875 204.24609375 C-151.371167 167.89793536 -151.65949678 124.87972589 -136.07714844 88.8671875 C-131.91286175 79.68288074 -126.91053388 71.18104385 -121 63 C-120.44828125 62.23558594 -119.8965625 61.47117188 -119.328125 60.68359375 C-107.06329818 44.35969329 -92.2485411 30.8446112 -75 20 C-74.40912598 19.62746094 -73.81825195 19.25492188 -73.20947266 18.87109375 C-51.40483416 5.46046786 -25.26300686 0 0 0 Z " fill="#138ACF" transform="translate(164,7)"/>
<path d="M0 0 C2.31243792 -0.02685412 4.6249627 -0.04632841 6.9375 -0.0625 C8.22527344 -0.07410156 9.51304687 -0.08570313 10.83984375 -0.09765625 C14 0 14 0 15 1 C15.10882827 2.91059888 15.14689494 4.82524455 15.15821838 6.73890686 C15.1680072 7.98557632 15.17779602 9.23224579 15.18788147 10.51669312 C15.19378643 11.91094932 15.19959682 13.30520593 15.20532227 14.69946289 C15.21489541 16.15772279 15.22490515 17.61597988 15.23532104 19.07423401 C15.2624373 23.04510463 15.28341034 27.01598721 15.30332303 30.98689961 C15.32514128 35.13227491 15.35255026 39.27761303 15.37937927 43.42295837 C15.42936261 51.27816632 15.47428043 59.13339483 15.51740164 66.98864311 C15.56672591 75.92927038 15.62166182 84.86986038 15.67708123 93.81045163 C15.79098784 112.20693316 15.89780788 130.60344985 16 149 C15.01 149.33 14.02 149.66 13 150 C13 150.66 13 151.32 13 152 C9.39428852 152.3344428 7.55423731 152.37528295 4.5078125 150.3125 C3.72148437 149.549375 2.93515625 148.78625 2.125 148 C1.26777344 147.18015625 0.41054687 146.3603125 -0.47265625 145.515625 C-1.30667969 144.68546875 -2.14070313 143.8553125 -3 143 C-3.74121094 142.27296875 -4.48242188 141.5459375 -5.24609375 140.796875 C-8.0915182 137.97834492 -10.88826851 135.11432989 -13.6875 132.25 C-15.96253117 129.9638232 -15.96253117 129.9638232 -18.5 128 C-21.21832357 125.82534114 -23.56493053 123.49041195 -26 121 C-27.60281465 119.39448246 -29.20707763 117.79040998 -30.8125 116.1875 C-32.20833333 114.79166667 -33.60416667 113.39583333 -35 112 C-33.02 111.505 -33.02 111.505 -31 111 C-30.67 112.32 -30.34 113.64 -30 115 C-29.401875 115.0825 -28.80375 115.165 -28.1875 115.25 C-25.37067727 116.21576779 -24.52200868 117.48868567 -23 120 C-23 120.66 -23 121.32 -23 122 C-22.319375 122.165 -21.63875 122.33 -20.9375 122.5 C-16.58741895 124.72131799 -14.09364623 128.29339356 -11 132 C-9.3777546 133.70993434 -7.70586575 135.37347684 -6 137 C-5.26910156 137.74894531 -4.53820312 138.49789062 -3.78515625 139.26953125 C-2.94855469 140.08808594 -2.11195313 140.90664062 -1.25 141.75 C-0.47140625 142.52859375 0.3071875 143.3071875 1.109375 144.109375 C4.69091291 146.76253766 4.69091291 146.76253766 13 147 C13 99.15 13 51.3 13 2 C8.71 1.67 4.42 1.34 0 1 C0 0.67 0 0.34 0 0 Z " fill="#2988C8" transform="translate(149,9)"/>
<path d="M0 0 C-0.33 0.99 -0.66 1.98 -1 3 C-2.41152344 2.96519531 -2.41152344 2.96519531 -3.8515625 2.9296875 C-5.09679687 2.91164063 -6.34203125 2.89359375 -7.625 2.875 C-9.46964844 2.84019531 -9.46964844 2.84019531 -11.3515625 2.8046875 C-14.97817748 2.99883177 -17.5952199 3.81791147 -21 5 C-22.99615429 5.16192209 -24.99787702 5.26397916 -27 5.3125 C-34.58628183 5.7969148 -40.99754108 8.17561919 -48 11 C-48.87398438 11.33257812 -49.74796875 11.66515625 -50.6484375 12.0078125 C-62.88633494 15.75794543 -62.88633494 15.75794543 -72 23 C-74.47068989 24.34161117 -77.00575376 25.4983024 -79.5546875 26.68359375 C-81.86352003 27.92652756 -83.25901699 29.07712324 -85 31 C-88.66666667 34 -88.66666667 34 -91 34 C-91.268125 34.598125 -91.53625 35.19625 -91.8125 35.8125 C-93.71162349 39.31088537 -95.20036361 40.73345454 -99 42 C-99.515625 42.515625 -100.03125 43.03125 -100.5625 43.5625 C-101.036875 44.036875 -101.51125 44.51125 -102 45 C-102.66 45 -103.32 45 -104 45 C-104.2475 45.515625 -104.495 46.03125 -104.75 46.5625 C-105.1625 47.366875 -105.575 48.17125 -106 49 C-106.598125 50.175625 -107.19625 51.35125 -107.8125 52.5625 C-109.68862311 55.86503881 -111.66501839 57.15698385 -115 59 C-116.32793606 61.06700655 -116.32793606 61.06700655 -117 63 C-117.66 63 -118.32 63 -119 63 C-119.4021875 64.0828125 -119.4021875 64.0828125 -119.8125 65.1875 C-120.99901362 67.99766383 -122.27485639 70.48416557 -124 73 C-124.66 73 -125.32 73 -126 73 C-126.144375 73.78375 -126.28875 74.5675 -126.4375 75.375 C-127 78 -127 78 -128 80 C-128.66 80 -129.32 80 -130 80 C-127.76251323 62.48367503 -104.24158911 41.73539105 -91 31 C-85.85313079 27.04944482 -80.49088441 23.45226337 -75 20 C-74.11368896 19.44119141 -74.11368896 19.44119141 -73.20947266 18.87109375 C-51.58094025 5.56877935 -25.16026832 -0.38907631 0 0 Z " fill="#207AB1" transform="translate(164,7)"/>
<path d="M0 0 C3.006818 1.33999498 4.99762609 2.79845291 7.25 5.1875 C9.7202041 7.73670849 12.24154523 10.12819493 14.9375 12.4375 C18.38421216 15.40605556 21.59110859 18.54079104 24.75 21.8125 C26.5985748 23.6097255 28.47489244 25.26280828 30.4375 26.9296875 C34.19486017 30.19128487 37.69987577 33.65185 41.1875 37.1953125 C41.73873535 37.75442322 42.2899707 38.31353394 42.85791016 38.8895874 C45.15294848 41.22103262 47.44506943 43.5551688 49.72753906 45.89892578 C60.25405558 57.66956757 60.25405558 57.66956757 74.5 62.8125 C75.3559375 62.86019531 76.211875 62.90789062 77.09375 62.95703125 C77.7228125 62.97121094 78.351875 62.98539063 79 63 C79 63.33 79 63.66 79 64 C76.36 64.33 73.72 64.66 71 65 C71.350625 65.7425 71.70125 66.485 72.0625 67.25 C73.0720098 70.21122875 72.87980884 71.12062561 72 74 C69.65861457 71.71643754 67.32833018 69.42186626 65 67.125 C64.33226562 66.47402344 63.66453125 65.82304687 62.9765625 65.15234375 C62.34492188 64.52714844 61.71328125 63.90195313 61.0625 63.2578125 C60.18271484 62.39373779 60.18271484 62.39373779 59.28515625 61.51220703 C58 60 58 60 58 58 C57.11634766 57.60748047 57.11634766 57.60748047 56.21484375 57.20703125 C53.88214566 55.9357725 52.39645632 54.59769469 50.5625 52.6875 C49.72912109 51.82705078 49.72912109 51.82705078 48.87890625 50.94921875 C47.94884766 49.98435547 47.94884766 49.98435547 47 49 C44.243323 46.2245701 41.46446506 43.47345613 38.66796875 40.73828125 C37.50775071 39.59641694 36.34759529 38.45448901 35.1875 37.3125 C34.59001953 36.73177734 33.99253906 36.15105469 33.37695312 35.55273438 C31.87985327 34.07274424 30.43511269 32.54017218 29 31 C29 30.34 29 29.68 29 29 C28.42765625 28.7525 27.8553125 28.505 27.265625 28.25 C24.64989389 26.80683801 22.85226544 25.11783778 20.75 23 C20.04359375 22.29875 19.3371875 21.5975 18.609375 20.875 C17 19 17 19 17 17 C16.39800781 16.73703125 15.79601562 16.4740625 15.17578125 16.203125 C12.8810142 14.93420534 11.78861649 13.79869084 10.1875 11.75 C7.51969407 8.48176717 4.62537401 5.87286042 1.3203125 3.26171875 C0.88460937 2.84535156 0.44890625 2.42898437 0 2 C0 1.34 0 0.68 0 0 Z " fill="#142B4F" transform="translate(85,141)"/>
<path d="M0 0 C1.12588014 0.95729916 2.2506715 1.91587895 3.375 2.875 C4.00148437 3.40867188 4.62796875 3.94234375 5.2734375 4.4921875 C8.97731343 7.72679409 8.97731343 7.72679409 9.2784729 11.35354614 C9.30211169 12.82036687 9.31467555 14.28738927 9.31884766 15.75439453 C9.32889328 16.55447937 9.3389389 17.35456421 9.34928894 18.17889404 C9.38024271 20.83019271 9.39718972 23.48138986 9.4140625 26.1328125 C9.43276436 27.96842327 9.45233703 29.80402536 9.4727478 31.63961792 C9.52417882 36.47616466 9.56374567 41.31273932 9.60089111 46.14941406 C9.64086217 51.08275314 9.69198589 56.01597504 9.7421875 60.94921875 C9.83907658 70.63273031 9.92343965 80.31630788 10 90 C8.09278868 90.01188382 6.18555576 90.02033041 4.27832031 90.02734375 C2.68519012 90.03495728 2.68519012 90.03495728 1.05987549 90.04272461 C-2.79850012 89.98885066 -6.43282526 89.56550737 -10.25 89 C-12.17585937 88.7215625 -12.17585937 88.7215625 -14.140625 88.4375 C-15.08421875 88.293125 -16.0278125 88.14875 -17 88 C-17 87.67 -17 87.34 -17 87 C-9.41 86.67 -1.82 86.34 6 86 C6.02262857 76.60287795 6.04095997 67.20577412 6.05181217 57.80863094 C6.05702173 53.4447573 6.06408429 49.08090334 6.07543945 44.71704102 C6.08633694 40.50250112 6.09229135 36.2879801 6.09487724 32.0734272 C6.09671915 30.4687527 6.10031587 28.86407919 6.10573006 27.25941277 C6.11303163 25.00486933 6.11398712 22.75040304 6.11352539 20.49584961 C6.115746 19.21455673 6.11796661 17.93326385 6.12025452 16.61314392 C5.99954414 12.98630329 5.70832179 9.56018499 5 6 C3.04978917 4.77472052 3.04978917 4.77472052 1 4 C0.375 1.94921875 0.375 1.94921875 0 0 Z " fill="#1D84C7" transform="translate(155,213)"/>
<path d="M0 0 C0.66 0 1.32 0 2 0 C2.01458252 1.03705078 2.02916504 2.07410156 2.04418945 3.14257812 C2.10313185 7.07176486 2.18033631 11.00043426 2.26245117 14.92919922 C2.29525768 16.61433377 2.32341961 18.29956658 2.34643555 19.98486328 C2.54917582 34.45275447 3.8074808 48.35354459 9 62 C9.46253943 63.30672574 9.92330085 64.61408147 10.3828125 65.921875 C10.90008095 67.36492807 11.41831943 68.80763377 11.9375 70.25 C12.17831299 70.93642578 12.41912598 71.62285156 12.66723633 72.33007812 C14.21835136 76.54606133 16.04036995 79.55489704 19 83 C19.93616248 84.49634595 20.83533501 86.01677486 21.6875 87.5625 C22.10386719 88.30628906 22.52023438 89.05007812 22.94921875 89.81640625 C23.9436062 91.88280991 24.5380006 93.76107985 25 96 C25.66 96 26.32 96 27 96 C27.103125 96.639375 27.20625 97.27875 27.3125 97.9375 C27.539375 98.618125 27.76625 99.29875 28 100 C29.485 100.495 29.485 100.495 31 101 C32.1875 104.0625 32.1875 104.0625 33 107 C22.04531272 102.44740269 14.31943802 82.72801844 9.9453125 72.24609375 C3.92228702 56.95421392 -0.16418787 40.7185928 -0.09765625 24.21875 C-0.0962413 23.51979614 -0.09482635 22.82084229 -0.09336853 22.10070801 C-0.0878367 19.90042571 -0.07529777 17.70025077 -0.0625 15.5 C-0.05747616 13.99479315 -0.05291482 12.48958468 -0.04882812 10.984375 C-0.03788977 7.32288265 -0.02067359 3.66145183 0 0 Z " fill="#1D78B0" transform="translate(17,139)"/>
<path d="M0 0 C2.31 0.33 4.62 0.66 7 1 C9.09674269 5.27783411 9.27365109 9.14868272 9.22705078 13.81958008 C9.22734283 14.59084229 9.22763489 15.36210449 9.22793579 16.15673828 C9.22654752 18.69445219 9.21101015 21.23186891 9.1953125 23.76953125 C9.19158058 25.53358296 9.18873445 27.29763675 9.18673706 29.06169128 C9.1791147 33.69609335 9.15947821 38.33036931 9.1373291 42.96472168 C9.11684057 47.69716689 9.10772891 52.42963256 9.09765625 57.16210938 C9.076231 66.44146154 9.04211192 75.72072027 9 85 C7.515 85.495 7.515 85.495 6 86 C5.99857498 85.01107758 5.99714996 84.02215515 5.99568176 83.00326538 C5.97899842 73.67487442 5.93618409 64.34691895 5.86790943 55.01875877 C5.83364639 50.22321721 5.80853052 45.42799398 5.80444336 40.63232422 C5.80015893 36.00251008 5.77168444 31.37341399 5.72656822 26.74382401 C5.7135978 24.97927663 5.70928394 23.21464331 5.71384621 21.45005417 C5.71875567 18.97421896 5.6926477 16.50047959 5.65942383 14.02490234 C5.66804947 13.29841492 5.67667511 12.57192749 5.68556213 11.82342529 C5.55885106 6.17576741 3.80431491 3.86567445 0 0 Z " fill="#042B5B" transform="translate(158,215)"/>
<path d="M0 0 C2.45993639 1.13535526 4.57178711 2.39389779 6.8125 3.9375 C9.91715088 6.11493393 9.91715088 6.11493393 13.4375 7.25 C17.59171825 9.29066861 19.60592645 11.66550431 22.421875 15.2578125 C23.98215652 17.26672441 23.98215652 17.26672441 27 18 C27 18.66 27 19.32 27 20 C28.32 20.33 29.64 20.66 31 21 C31 21.66 31 22.32 31 23 C33.31 23.66 35.62 24.32 38 25 C38 25.66 38 26.32 38 27 C38.70125 27.103125 39.4025 27.20625 40.125 27.3125 C43 28 43 28 45.5546875 29.38671875 C49.92778285 31.434438 54.30759107 32.43040679 59 33.5 C64.72115933 34.80408779 69.83929484 36.08012734 75 39 C70.84635679 40.74776675 67.13141516 39.14997486 63.0625 37.875 C62.30469238 37.64272705 61.54688477 37.4104541 60.76611328 37.17114258 C37.41075461 29.89381954 17.26507691 18.42318201 0 1 C0 0.67 0 0.34 0 0 Z " fill="#2480B8" transform="translate(62,260)"/>
<path d="M0 0 C5.18082355 3.55256472 9.38080886 7.31321576 13.41796875 12.125 C15.47619962 14.56438474 17.71548012 16.77259312 20 19 C21.16801776 20.16531401 22.33458984 21.33207818 23.5 22.5 C24.0465625 23.0465625 24.593125 23.593125 25.15625 24.15625 C41.0625 40.0625 41.0625 40.0625 42.55395508 41.5559082 C43.93111664 42.93120967 45.31499739 44.29977311 46.69921875 45.66796875 C49.32295529 48.32734178 51.64347166 51.10483661 54 54 C50.62537285 53.45276317 48.91765 52.9451 46 51 C46 50.01 46 49.02 46 48 C45.34 48 44.68 48 44 48 C43.525625 47.195625 43.05125 46.39125 42.5625 45.5625 C41.20016328 42.7081924 41.20016328 42.7081924 38 42 C38 41.34 38 40.68 38 40 C37.01 40 36.02 40 35 40 C35 38.68 35 37.36 35 36 C33.68 35.67 32.36 35.34 31 35 C31 34.34 31 33.68 31 33 C30.01 33 29.02 33 28 33 C28 31.35 28 29.7 28 28 C27.030625 27.731875 26.06125 27.46375 25.0625 27.1875 C24.051875 26.795625 23.04125 26.40375 22 26 C21.67 25.01 21.34 24.02 21 23 C18.99983534 21.79117904 18.99983534 21.79117904 17 21 C17 20.34 17 19.68 17 19 C15.02 18.34 13.04 17.68 11 17 C10.67 15.02 10.34 13.04 10 11 C8.68 11 7.36 11 6 11 C6 9.35 6 7.7 6 6 C4.35 6 2.7 6 1 6 C0.4465236 3.92446352 0 2.15634036 0 0 Z " fill="#2283C6" transform="translate(85,143)"/>
<path d="M0 0 C0.66 0.99 1.32 1.98 2 3 C0.68 3.99 -0.64 4.98 -2 6 C-1.34 6.66 -0.68 7.32 0 8 C0.125 10.625 0.125 10.625 0 13 C-2.475 12.505 -2.475 12.505 -5 12 C-5.33 12.66 -5.66 13.32 -6 14 C-6 13.34 -6 12.68 -6 12 C-6.99 12 -7.98 12 -9 12 C-9.20140476 15.62528568 -8.85776765 17.86501708 -7 21 C-8.134375 21.12375 -9.26875 21.2475 -10.4375 21.375 C-12.2009375 21.684375 -12.2009375 21.684375 -14 22 C-14.33 22.66 -14.66 23.32 -15 24 C-15.99 24 -16.98 24 -18 24 C-18.70605469 21.75854492 -18.70605469 21.75854492 -19 19 C-17.69238281 16.90356445 -17.69238281 16.90356445 -15.703125 14.86328125 C-14.9915625 14.12142578 -14.28 13.37957031 -13.546875 12.61523438 C-12.40992188 11.47538086 -12.40992188 11.47538086 -11.25 10.3125 C-10.5075 9.54099609 -9.765 8.76949219 -9 7.97460938 C-6.10266434 4.99129163 -3.47020614 2.31347076 0 0 Z " fill="#131932" transform="translate(215,154)"/>
<path d="M0 0 C1.32 0 2.64 0 4 0 C4.33 1.32 4.66 2.64 5 4 C5.598125 4.0825 6.19625 4.165 6.8125 4.25 C9.62932273 5.21576779 10.47799132 6.48868567 12 9 C12 9.66 12 10.32 12 11 C12.680625 11.165 13.36125 11.33 14.0625 11.5 C18.41258105 13.72131799 20.90635377 17.29339356 24 21 C25.6222454 22.70993434 27.29413425 24.37347684 29 26 C29.73089844 26.74894531 30.46179688 27.49789062 31.21484375 28.26953125 C36.78998254 33.84190263 36.78998254 33.84190263 44.125 36.0625 C46.043125 36.0315625 46.043125 36.0315625 48 36 C48.33 35.01 48.66 34.02 49 33 C49.125 38.75 49.125 38.75 48 41 C44.39428852 41.3344428 42.55423731 41.37528295 39.5078125 39.3125 C38.72148437 38.549375 37.93515625 37.78625 37.125 37 C36.26777344 36.18015625 35.41054687 35.3603125 34.52734375 34.515625 C33.27630859 33.27039063 33.27630859 33.27039063 32 32 C31.25878906 31.27296875 30.51757812 30.5459375 29.75390625 29.796875 C26.9084818 26.97834492 24.11173149 24.11432989 21.3125 21.25 C19.03746883 18.9638232 19.03746883 18.9638232 16.5 17 C13.78167643 14.82534114 11.43506947 12.49041195 9 10 C7.85337891 8.86884766 7.85337891 8.86884766 6.68359375 7.71484375 C5.85988281 6.90144531 5.03617187 6.08804688 4.1875 5.25 C3.39730469 4.47140625 2.60710937 3.6928125 1.79296875 2.890625 C0 1 0 1 0 0 Z " fill="#2B89BF" transform="translate(114,120)"/>
<path d="M0 0 C-0.2165625 0.68707031 -0.433125 1.37414062 -0.65625 2.08203125 C-0.9346875 2.98308594 -1.213125 3.88414062 -1.5 4.8125 C-1.7784375 5.70582031 -2.056875 6.59914062 -2.34375 7.51953125 C-3.12788351 10.05573395 -3.12788351 10.05573395 -3 13 C-5.97 12.67 -8.94 12.34 -12 12 C-12.268125 11.071875 -12.53625 10.14375 -12.8125 9.1875 C-13.92448399 6.20270088 -14.66582425 5.01587906 -17 3 C-17 2.67 -17 2.34 -17 2 C-16.22914063 1.93941406 -15.45828125 1.87882813 -14.6640625 1.81640625 C-13.15972656 1.69072266 -13.15972656 1.69072266 -11.625 1.5625 C-10.62726563 1.48128906 -9.62953125 1.40007812 -8.6015625 1.31640625 C-5.21522585 0.9045545 -3.61528954 0 0 0 Z " fill="#111935" transform="translate(170,203)"/>
<path d="M0 0 C0.33 0 0.66 0 1 0 C0.67 13.53 0.34 27.06 0 41 C0.66 41.33 1.32 41.66 2 42 C2.47664026 45.27973895 2.78869419 48.53079167 3.03515625 51.83398438 C3.53313458 56.92181954 4.94974269 59.77986489 8 64 C8.25 67.375 8.25 67.375 8 70 C7.34 70 6.68 70 6 70 C5.70996094 69.00419922 5.70996094 69.00419922 5.4140625 67.98828125 C5.02347656 66.66376953 5.02347656 66.66376953 4.625 65.3125 C4.24214844 64.00732422 4.24214844 64.00732422 3.8515625 62.67578125 C3.05214093 60.02739334 3.05214093 60.02739334 2.01660156 57.65209961 C-2.09127448 46.9355152 -1.2400341 35.02551205 -1.125 23.75 C-1.11494488 22.02214063 -1.10582353 20.29427557 -1.09765625 18.56640625 C-1.07585539 14.37746077 -1.0414669 10.18879506 -1 6 C-1.66 5.67 -2.32 5.34 -3 5 C-2.34 4.67 -1.68 4.34 -1 4 C-0.34786708 1.97536745 -0.34786708 1.97536745 0 0 Z " fill="#1287CB" transform="translate(20,133)"/>
<path d="M0 0 C2.25 1.9375 2.25 1.9375 4 4 C0.20307814 6.82561627 -2.18569279 8.56638908 -7 8 C-7.4021875 9.1446875 -7.4021875 9.1446875 -7.8125 10.3125 C-8.94424112 12.87380884 -9.91223401 14.19692938 -12 16 C-12.66 15.67 -13.32 15.34 -14 15 C-13.71591906 10.31266455 -11.48550729 7.79071085 -8.5703125 4.35546875 C-7 3 -7 3 -4 3 C-4 2.34 -4 1.68 -4 1 C-2.25 0.25 -2.25 0.25 0 0 Z " fill="#1D2138" transform="translate(195,179)"/>
<path d="M0 0 C1.12588014 0.95729916 2.2506715 1.91587895 3.375 2.875 C4.00148437 3.40867188 4.62796875 3.94234375 5.2734375 4.4921875 C8.97732709 7.72680601 8.97732709 7.72680601 9.24050903 10.89797974 C9.23606781 12.13708099 9.23162659 13.37618225 9.22705078 14.65283203 C9.22734283 15.33587402 9.22763489 16.01891602 9.22793579 16.72265625 C9.22654039 18.98450341 9.21096967 21.24602276 9.1953125 23.5078125 C9.19158311 25.07436951 9.18873579 26.64092884 9.18673706 28.20748901 C9.17909476 32.33394797 9.15944124 36.46026651 9.1373291 40.58666992 C9.11688346 44.79604187 9.1077381 49.00543648 9.09765625 53.21484375 C9.07619583 61.476627 9.04205279 69.73829604 9 78 C8.67 78 8.34 78 8 78 C7.98786972 76.77970596 7.98786972 76.77970596 7.97549438 75.53475952 C7.89743848 67.8546616 7.8101149 60.17475066 7.71247292 52.49487877 C7.66260289 48.54691432 7.61627234 44.59897541 7.578125 40.65087891 C7.54115437 36.83820903 7.49476309 33.02575789 7.44193649 29.21327591 C7.42345494 27.76132686 7.40832411 26.30933104 7.39665604 24.85731125 C7.37968602 22.81789675 7.350627 20.7789764 7.31884766 18.73974609 C7.30552399 17.58058685 7.29220032 16.42142761 7.2784729 15.22714233 C6.98638378 11.84220559 6.31055474 9.13059534 5 6 C2.98330173 4.86649466 2.98330173 4.86649466 1 4 C0.37890625 1.9453125 0.37890625 1.9453125 0 0 Z " fill="#3485C1" transform="translate(155,213)"/>
<path d="M0 0 C0.33 0 0.66 0 1 0 C1 2.31 1 4.62 1 7 C1.66 7 2.32 7 3 7 C2.04587858 12.76239122 1.0301316 16.56685525 -3 21 C-3 21.66 -3 22.32 -3 23 C-3.66 23 -4.32 23 -5 23 C-5.33 23.66 -5.66 24.32 -6 25 C-6.99 23.68 -7.98 22.36 -9 21 C-8.51789063 20.23816406 -8.03578125 19.47632812 -7.5390625 18.69140625 C-3.71713046 12.44371734 -1.08855164 7.25701093 0 0 Z " fill="#161B33" transform="translate(257,96)"/>
<path d="M0 0 C0.66 0 1.32 0 2 0 C1.54384758 10.03535324 0.00152488 18.76571182 -4 28 C-4.33 28 -4.66 28 -5 28 C-4.66815916 18.16091922 -2.7863603 9.36994648 0 0 Z " fill="#187EB9" transform="translate(23,110)"/>
<path d="M0 0 C2.45993639 1.13535526 4.57178711 2.39389779 6.8125 3.9375 C9.95075314 6.11104815 9.95075314 6.11104815 13.5625 7.4375 C17.27080717 9.12309417 19.3819142 10.9058986 22 14 C22 14.66 22 15.32 22 16 C19.36685121 16.46055074 17.6087874 16.38505714 15.32324219 14.93945312 C13.45042634 13.43168642 11.6574268 11.86356531 9.875 10.25 C9.25496094 9.71117187 8.63492188 9.17234375 7.99609375 8.6171875 C4.97314057 5.95178792 2.24752479 3.37948983 0 0 Z " fill="#168CCE" transform="translate(62,260)"/>
<path d="M0 0 C3.09152119 0.44164588 5.91998769 0.97216963 8.875 2 C12.61541901 3.19693408 16.09708063 3.59624972 20 4 C20 4.66 20 5.32 20 6 C21.9490625 6.1546875 21.9490625 6.1546875 23.9375 6.3125 C28.19138946 6.77400688 31.9012865 7.85758988 35.9140625 9.30078125 C38.57161429 10.19160854 41.22445693 10.64416114 44 11 C44 11.33 44 11.66 44 12 C36.91710389 12.43811728 31.44509567 12.18793624 24.984375 9.2109375 C20.21355303 7.27513277 15.23138531 6.09243648 10.24365234 4.83911133 C6.23298835 3.79001561 3.12655279 2.88411955 0 0 Z " fill="#0F86CB" transform="translate(105,288)"/>
<path d="M0 0 C3.9968612 2.16972465 6.87428553 4.70977424 10 8 C10.598125 8.556875 11.19625 9.11375 11.8125 9.6875 C13 11 13 11 13 13 C13.56203125 13.23460937 14.1240625 13.46921875 14.703125 13.7109375 C17.54635891 15.30663 19.48098127 17.28924543 21.75 19.625 C22.54921875 20.44226563 23.3484375 21.25953125 24.171875 22.1015625 C24.77515625 22.72804687 25.3784375 23.35453125 26 24 C25.34 24.33 24.68 24.66 24 25 C22.5574598 23.92338719 21.12116839 22.83839897 19.6875 21.75 C18.88699219 21.14671875 18.08648437 20.5434375 17.26171875 19.921875 C15.09632162 18.08184843 13.52561618 16.38963828 12 14 C12 13.34 12 12.68 12 12 C11.0409375 11.8453125 11.0409375 11.8453125 10.0625 11.6875 C9.0415625 11.3471875 9.0415625 11.3471875 8 11 C7.67 10.01 7.34 9.02 7 8 C6.01 7.34 5.02 6.68 4 6 C4 5.34 4 4.68 4 4 C2.68 3.67 1.36 3.34 0 3 C0 2.01 0 1.02 0 0 Z " fill="#C9F3FD" transform="translate(123,130)"/>
<path d="M0 0 C0.86625 0.01546875 1.7325 0.0309375 2.625 0.046875 C7.08432917 0.42826499 9.10993415 1.96130438 12 5.25 C12 5.91 12 6.57 12 7.25 C13.32 7.58 14.64 7.91 16 8.25 C16 9.24 16 10.23 16 11.25 C16.66 11.25 17.32 11.25 18 11.25 C17.67 12.24 17.34 13.23 17 14.25 C16.55269531 13.77949219 16.10539062 13.30898437 15.64453125 12.82421875 C15.03996094 12.20160156 14.43539062 11.57898438 13.8125 10.9375 C13.22082031 10.32261719 12.62914063 9.70773438 12.01953125 9.07421875 C7.57376624 5.05841168 4.17019163 3.86465614 -1.8125 3.5625 C-2.97394531 3.49675781 -4.13539062 3.43101563 -5.33203125 3.36328125 C-6.21246094 3.32589844 -7.09289062 3.28851563 -8 3.25 C-5.52615516 0.15769395 -3.89285491 -0.11585878 0 0 Z " fill="#3093C7" transform="translate(96,105.75)"/>
<path d="M0 0 C0.33 0 0.66 0 1 0 C1.33 3.96 1.66 7.92 2 12 C-7.25059772 12.22840982 -15.87942088 11.39549844 -25 10 C-25 9.67 -25 9.34 -25 9 C-17.08 8.67 -9.16 8.34 -1 8 C-0.67 5.36 -0.34 2.72 0 0 Z " fill="#2378B1" transform="translate(163,291)"/>
<path d="M0 0 C-0.47050781 0.35191406 -0.94101563 0.70382813 -1.42578125 1.06640625 C-5.84216114 4.56842177 -8.47885692 7.39078488 -10 13 C-10.39918836 17.42300708 -9.92888634 20.66541867 -7.36328125 24.3515625 C-5.64510932 26.32414934 -3.88821594 28.19066515 -2 30 C-2.66 30.66 -3.32 31.32 -4 32 C-5.15093925 30.5665848 -6.29558035 29.12811091 -7.4375 27.6875 C-8.39462891 26.48673828 -8.39462891 26.48673828 -9.37109375 25.26171875 C-11.70977547 22.01448443 -12.13814684 19.46053739 -12.125 15.5625 C-12.12757812 14.80066406 -12.13015625 14.03882812 -12.1328125 13.25390625 C-12.00276015 11.04684141 -11.60856199 9.12030724 -11 7 C-10.34 7 -9.68 7 -9 7 C-8.938125 6.236875 -8.87625 5.47375 -8.8125 4.6875 C-8 2 -8 2 -5.625 0.125 C-3 -1 -3 -1 0 0 Z " fill="#3389B6" transform="translate(88,110)"/>
<path d="M0 0 C0.33 0.66 0.66 1.32 1 2 C0.27554688 2.02578125 -0.44890625 2.0515625 -1.1953125 2.078125 C-8.66653186 2.51643654 -12.84849914 3.84849914 -18.25 9.25 C-18.8275 9.8275 -19.405 10.405 -20 11 C-20.66 11 -21.32 11 -22 11 C-20.86202645 6.70098882 -18.7071029 3.95168029 -15.3515625 1.16015625 C-10.58152592 -1.19316745 -5.17528781 -0.42024894 0 0 Z " fill="#D7F7FC" transform="translate(101,109)"/>
<path d="M0 0 C0 2.31 0 4.62 0 7 C-2.35438733 8.42944945 -3.48032433 9.08661261 -6.25 8.625 C-6.8275 8.41875 -7.405 8.2125 -8 8 C-8.75 6.25 -8.75 6.25 -9 4 C-6.34633802 0.3256988 -4.47218731 -0.4969097 0 0 Z " fill="#121731" transform="translate(247,122)"/>
<path d="M0 0 C3.27655508 1.40526214 5.15432686 3.02917473 7.4375 5.75 C8.035625 6.45640625 8.63375 7.1628125 9.25 7.890625 C9.8275 8.58671875 10.405 9.2828125 11 10 C11.515625 10.61359375 12.03125 11.2271875 12.5625 11.859375 C13.71475603 13.23422594 14.85842244 14.61626963 16 16 C14.68 16.33 13.36 16.66 12 17 C12 16.34 12 15.68 12 15 C11.01 15 10.02 15 9 15 C7.5 12.8125 7.5 12.8125 6 10 C4.1296594 6.6489731 3.2500454 5.16669693 0 3 C0 2.01 0 1.02 0 0 Z " fill="#1F81C1" transform="translate(139,197)"/>
<path d="M0 0 C1.03125 0.804375 2.0625 1.60875 3.125 2.4375 C6.37127696 4.77799296 8.94902383 5.70358711 13 6 C13 5.34 13 4.68 13 4 C14.62626404 2.61767557 16.2925002 1.28062485 18 0 C17.7095662 3.26738025 17.51431765 5.3867751 15.375 7.9375 C11.82647165 9.52499952 9.71642927 9.02522187 6 8 C3.57745582 6.5263298 2.01829465 5.06752135 0 3 C0 2.01 0 1.02 0 0 Z " fill="#DBF6FB" transform="translate(149,155)"/>
<path d="M0 0 C3.03708705 1.34981647 5.03741247 2.83916739 7.3125 5.25 C10.69808043 8.74550187 14.26855998 11.87777468 18 15 C17.01 15.66 16.02 16.32 15 17 C14.50371094 16.41992188 14.00742188 15.83984375 13.49609375 15.2421875 C10.17510447 11.42336492 6.91169934 7.78625222 3 4.5625 C2.01 3.716875 1.02 2.87125 0 2 C0 1.34 0 0.68 0 0 Z " fill="#123658" transform="translate(85,141)"/>
<path d="M0 0 C0.99 0.33 1.98 0.66 3 1 C2.175 1.886875 1.35 2.77375 0.5 3.6875 C-1.46099476 6.01307407 -1.97259478 6.74787194 -2.3125 9.875 C-2.209375 10.57625 -2.10625 11.2775 -2 12 C-4.475 11.01 -4.475 11.01 -7 10 C-7 6 -7 6 -5.57421875 4.26171875 C-4.64029297 3.48248047 -4.64029297 3.48248047 -3.6875 2.6875 C-2.76517578 1.88892578 -2.76517578 1.88892578 -1.82421875 1.07421875 C-0.92123047 0.54248047 -0.92123047 0.54248047 0 0 Z " fill="#0D122B" transform="translate(226,142)"/>
<path d="M0 0 C0.99 0.99 1.98 1.98 3 3 C1.625 5.5 1.625 5.5 0 8 C-0.66 8 -1.32 8 -2 8 C-2 7.34 -2 6.68 -2 6 C-4.50037734 8.17424117 -5.43628586 9.73045798 -6 13 C-7.32 12.67 -8.64 12.34 -10 12 C-7.11954533 7.34695784 -3.96084779 3.78080926 0 0 Z " fill="#EDF0F2" transform="translate(205,111)"/>
<path d="M0 0 C1.32 0.33 2.64 0.66 4 1 C0.04 4.3 -3.92 7.6 -8 11 C-8.66 10.67 -9.32 10.34 -10 10 C-10 8.35 -10 6.7 -10 5 C-8 6 -8 6 -6 7 C-5.67 6.34 -5.34 5.68 -5 5 C-5.66 4.34 -6.32 3.68 -7 3 C-6.34 2.34 -5.68 1.68 -5 1 C-3.68 1 -2.36 1 -1 1 C-0.67 0.67 -0.34 0.34 0 0 Z " fill="#1B2544" transform="translate(259,264)"/>
<path d="M0 0 C5.04395895 3.51548654 8.37975847 8.11736877 12 13 C11.67 13.66 11.34 14.32 11 15 C6.2 12.53846154 6.2 12.53846154 5.1875 9.8125 C5.0946875 8.9153125 5.0946875 8.9153125 5 8 C3.68 8.33 2.36 8.66 1 9 C1 7.68 1 6.36 1 5 C0.69595322 3.32774271 0.36871088 1.65919896 0 0 Z " fill="#242D4E" transform="translate(271,54)"/>
<path d="M0 0 C0.33 0.66 0.66 1.32 1 2 C1.66 2 2.32 2 3 2 C3 1.34 3 0.68 3 0 C3.66 0 4.32 0 5 0 C3.61961693 2.93167071 2.04174667 5.51306023 0.125 8.125 C-0.36742187 8.80820313 -0.85984375 9.49140625 -1.3671875 10.1953125 C-3.11044971 12.122076 -4.62196759 13.00143228 -7 14 C-6.34 12.35 -5.68 10.7 -5 9 C-4.34 9 -3.68 9 -3 9 C-2.814375 7.88625 -2.814375 7.88625 -2.625 6.75 C-2.04513299 4.19858515 -1.26291261 2.2732427 0 0 Z " fill="#141D3C" transform="translate(272,247)"/>
<path d="M0 0 C11.45863495 9.65615305 11.45863495 9.65615305 13 14 C12.67 14.99 12.34 15.98 12 17 C10.62437146 15.71034824 9.29233607 14.37310707 8 13 C8 12.34 8 11.68 8 11 C7.01 10.67 6.02 10.34 5 10 C5 9.01 5 8.02 5 7 C4.34 6.67 3.68 6.34 3 6 C3 5.34 3 4.68 3 4 C2.01 3.67 1.02 3.34 0 3 C0 2.01 0 1.02 0 0 Z " fill="#06234D" transform="translate(135,188)"/>
<path d="M0 0 C0.66 0 1.32 0 2 0 C0.08853524 6.1253757 -1.89122414 12.36141059 -5 18 C-5.66 18.33 -6.32 18.66 -7 19 C-6.41249992 14.5470164 -5.26681981 10.81179158 -3.5 6.6875 C-3.0565625 5.63949219 -2.613125 4.59148437 -2.15625 3.51171875 C-1 1 -1 1 0 0 Z " fill="#1378AD" transform="translate(32,88)"/>
<path d="M0 0 C0.33 0.66 0.66 1.32 1 2 C0.34 2 -0.32 2 -1 2 C-1.268125 2.721875 -1.53625 3.44375 -1.8125 4.1875 C-2.99901362 6.99766383 -4.27485639 9.48416557 -6 12 C-6.66 12 -7.32 12 -8 12 C-8.144375 12.78375 -8.28875 13.5675 -8.4375 14.375 C-9 17 -9 17 -10 19 C-10.66 19 -11.32 19 -12 19 C-11.44733314 14.46980647 -9.66797015 11.56175086 -7.125 7.8125 C-6.42632812 6.76707031 -5.72765625 5.72164063 -5.0078125 4.64453125 C-3 2 -3 2 0 0 Z " fill="#1674AC" transform="translate(46,68)"/>
<path d="M0 0 C1.32 0.33 2.64 0.66 4 1 C4 1.66 4 2.32 4 3 C6.20759471 3.57233937 8.37309778 4.06218296 10.625 4.4375 C13 5 13 5 15 7 C14.34 7 13.68 7 13 7 C12.67 7.99 12.34 8.98 12 10 C6.68572797 7.29076328 3.57851409 4.77135213 0 0 Z " fill="#F2F0F1" transform="translate(141,193)"/>
<path d="M0 0 C2.25 1.9375 2.25 1.9375 4 4 C-1.75 8 -1.75 8 -4 8 C-4.66 6.35 -5.32 4.7 -6 3 C-5.34 3 -4.68 3 -4 3 C-4 2.34 -4 1.68 -4 1 C-2.25 0.25 -2.25 0.25 0 0 Z " fill="#0D1333" transform="translate(195,179)"/>
<path d="M0 0 C0.66 0 1.32 0 2 0 C1.39561204 3.38457255 0.06998635 5.3000178 -2 8 C-2 8.66 -2 9.32 -2 10 C-2.66 10 -3.32 10 -4 10 C-4.33 10.66 -4.66 11.32 -5 12 C-5.99 10.68 -6.98 9.36 -8 8 C-6.8125 5.5 -6.8125 5.5 -5 3 C-2.3125 2.6875 -2.3125 2.6875 0 3 C0 2.01 0 1.02 0 0 Z " fill="#0C102D" transform="translate(256,109)"/>
<path d="M0 0 C2 3 2 3 3 5 C-1.29290618 9.75286041 -1.29290618 9.75286041 -5 10 C-5.66 9.34 -6.32 8.68 -7 8 C-4.69 5.36 -2.38 2.72 0 0 Z " fill="#E9EDF1" transform="translate(221,93)"/>
<path d="M0 0 C0.99 0 1.98 0 3 0 C3 0.66 3 1.32 3 2 C3.66 2 4.32 2 5 2 C5.45375 2.61875 5.9075 3.2375 6.375 3.875 C7.84174937 6.11515073 7.84174937 6.11515073 10.125 7.0625 C11.053125 7.5265625 11.053125 7.5265625 12 8 C12.33 8.99 12.66 9.98 13 11 C13.66 11.33 14.32 11.66 15 12 C15 12.66 15 13.32 15 14 C15.99 14.33 16.98 14.66 18 15 C17.34 15.66 16.68 16.32 16 17 C14.29101326 15.29101326 12.58226514 13.58180096 10.875 11.87109375 C9.36362028 10.36286273 7.83996291 8.86694052 6.3125 7.375 C4.02918632 5.02997514 1.99804867 2.59006309 0 0 Z " fill="#083669" transform="translate(123,180)"/>
<path d="M0 0 C0.33 0 0.66 0 1 0 C0.67 11.88 0.34 23.76 0 36 C-0.33 36 -0.66 36 -1 36 C-1 26.1 -1 16.2 -1 6 C-1.66 5.67 -2.32 5.34 -3 5 C-2.34 4.67 -1.68 4.34 -1 4 C-0.34786708 1.97536745 -0.34786708 1.97536745 0 0 Z " fill="#1290D3" transform="translate(20,133)"/>
<path d="M0 0 C0.66 0.33 1.32 0.66 2 1 C-1.26818196 5.22941195 -4.19151532 8.44229538 -9 11 C-10.32 10.67 -11.64 10.34 -13 10 C-8.71 6.7 -4.42 3.4 0 0 Z " fill="#2275AE" transform="translate(84,30)"/>
<path d="M0 0 C4.4062186 1.34634457 6.43077702 3.19374374 9 7 C9 7.66 9 8.32 9 9 C9.66 9 10.32 9 11 9 C11 9.66 11 10.32 11 11 C11.66 11.33 12.32 11.66 13 12 C8.40920896 11.54172489 6.63753749 10.03476635 3.6875 6.5625 C2.99011719 5.75941406 2.29273438 4.95632812 1.57421875 4.12890625 C0 2 0 2 0 0 Z " fill="#2081B4" transform="translate(50,247)"/>
<path d="M0 0 C-6.61172464 3.92995969 -12.38355798 6.75140295 -20 8 C-5.91304348 -2.95652174 -5.91304348 -2.95652174 0 0 Z " fill="#148AD3" transform="translate(118,18)"/>
<path d="M0 0 C3.90285767 1.58667578 6.33520982 4.13350481 9.25 7.125 C10.14203125 8.03507813 11.0340625 8.94515625 11.953125 9.8828125 C12.62859375 10.58148438 13.3040625 11.28015625 14 12 C12.68 12.33 11.36 12.66 10 13 C7 9.25 7 9.25 7 7 C6.34 7 5.68 7 5 7 C5 6.34 5 5.68 5 5 C4.01 4.67 3.02 4.34 2 4 C0.8125 1.9375 0.8125 1.9375 0 0 Z " fill="#0D1E3D" transform="translate(121,175)"/>
<path d="M0 0 C0.33 0.66 0.66 1.32 1 2 C0.649375 2.61875 0.29875 3.2375 -0.0625 3.875 C-0.5265625 4.926875 -0.5265625 4.926875 -1 6 C-0.21690533 8.23470405 -0.21690533 8.23470405 1 10 C-4.75 11.125 -4.75 11.125 -7 10 C-5.33248852 6.05860922 -2.77289351 3.2107188 0 0 Z " fill="#22263A" transform="translate(250,112)"/>
<path d="M0 0 C2.94721162 2.74395564 5.19168608 5.38337216 7 9 C6.67 9.66 6.34 10.32 6 11 C4.125 10.8125 4.125 10.8125 2 10 C0.875 7.5 0.875 7.5 0 5 C-0.66 4.67 -1.32 4.34 -2 4 C-1.33333333 2.66666667 -0.66666667 1.33333333 0 0 Z " fill="#1B2643" transform="translate(286,73)"/>
<path d="M0 0 C3.58298283 1.65368438 6.75194477 3.76696203 10 6 C11.175625 6.804375 11.175625 6.804375 12.375 7.625 C12.91125 8.07875 13.4475 8.5325 14 9 C14 9.66 14 10.32 14 11 C9.88416276 10.46147924 7.7329259 8.25615375 4.75 5.5 C3.85796875 4.6853125 2.9659375 3.870625 2.046875 3.03125 C1.37140625 2.3609375 0.6959375 1.690625 0 1 C0 0.67 0 0.34 0 0 Z " fill="#1B80B8" transform="translate(62,260)"/>
<path d="M0 0 C3.9968612 2.16972465 6.87428553 4.70977424 10 8 C10.598125 8.556875 11.19625 9.11375 11.8125 9.6875 C13 11 13 11 13 13 C13.66 13.33 14.32 13.66 15 14 C14.01 14 13.02 14 12 14 C12 13.34 12 12.68 12 12 C11.0409375 11.8453125 11.0409375 11.8453125 10.0625 11.6875 C9.0415625 11.3471875 9.0415625 11.3471875 8 11 C7.67 10.01 7.34 9.02 7 8 C6.01 7.34 5.02 6.68 4 6 C4 5.34 4 4.68 4 4 C2.68 3.67 1.36 3.34 0 3 C0 2.01 0 1.02 0 0 Z " fill="#BFEEF8" transform="translate(123,130)"/>
<path d="M0 0 C1.32 0 2.64 0 4 0 C4.33 1.32 4.66 2.64 5 4 C5.598125 4.0825 6.19625 4.165 6.8125 4.25 C9.65361183 5.22409548 10.54982079 6.40494247 12 9 C11.67 9.99 11.34 10.98 11 12 C9.16364422 10.19047409 7.33083792 8.37759362 5.5 6.5625 C4.97535156 6.04623047 4.45070313 5.52996094 3.91015625 4.99804688 C2.58775448 3.68423213 1.29164432 2.34406495 0 1 C0 0.67 0 0.34 0 0 Z " fill="#3893C4" transform="translate(114,120)"/>
<path d="M0 0 C2.8358562 2.46886304 4.19600752 5.0994988 5.75 8.5 C6.42289062 9.93859375 6.42289062 9.93859375 7.109375 11.40625 C8 14 8 14 7 17 C3.68774552 15.34387276 3.23017425 12.35502069 2 9 C1.8125 6.0625 1.8125 6.0625 2 4 C1.34 4 0.68 4 0 4 C0 2.68 0 1.36 0 0 Z " fill="#202A48" transform="translate(293,84)"/>
<path d="M0 0 C0.66 0 1.32 0 2 0 C1.88581333 2.58422459 1.75907638 5.16679513 1.625 7.75 C1.5940625 8.47960937 1.563125 9.20921875 1.53125 9.9609375 C1.3251506 13.73942656 1.08487157 16.77946668 -1 20 C-1.33 20 -1.66 20 -2 20 C-1.85780436 17.79142945 -1.71108153 15.58315013 -1.5625 13.375 C-1.48128906 12.14523438 -1.40007812 10.91546875 -1.31640625 9.6484375 C-1.03336056 6.38467612 -0.58961047 3.22056141 0 0 Z " fill="#0D1532" transform="translate(308,161)"/>
<path d="M0 0 C0.33 0 0.66 0 1 0 C1.06316406 0.61746094 1.12632813 1.23492187 1.19140625 1.87109375 C2.25043071 9.19508393 5.08344744 13.55761294 10 19 C7 19 7 19 5 17.4375 C0.44011155 11.88013595 -0.36389121 6.91393297 0 0 Z " fill="#238ACA" transform="translate(75,123)"/>
<path d="M0 0 C0.66 0.33 1.32 0.66 2 1 C0.60846256 5.42761914 -1.52071486 7.9556255 -5 11 C-5.66 11 -6.32 11 -7 11 C-5.7580393 7.56072421 -4.44259716 4.74792181 -2 2 C-1.34 2 -0.68 2 0 2 C0 1.34 0 0.68 0 0 Z " fill="#108AD2" transform="translate(62,50)"/>
<path d="M0 0 C0.33 0 0.66 0 1 0 C1.66 4.62 2.32 9.24 3 14 C3.99 14.33 4.98 14.66 6 15 C5.34 15.66 4.68 16.32 4 17 C0.20534695 13.20534695 -0.55447443 10.22788652 -1.01953125 5.0859375 C-1 3 -1 3 0 0 Z " fill="#BDEBF6" transform="translate(78,120)"/>
<path d="M0 0 C-1.04874998 2.62187494 -1.64931313 3.79371361 -4.125 5.25 C-4.74375 5.4975 -5.3625 5.745 -6 6 C-6.33 5.34 -6.66 4.68 -7 4 C-7.33 4.66 -7.66 5.32 -8 6 C-8.66 6 -9.32 6 -10 6 C-8.84826645 3.53199953 -7.95216435 1.95216435 -6 0 C-2.44444444 -1.22222222 -2.44444444 -1.22222222 0 0 Z " fill="#0C112A" transform="translate(181,197)"/>
<path d="M0 0 C1.32 0.33 2.64 0.66 4 1 C3.01 2.485 3.01 2.485 2 4 C1.01 4 0.02 4 -1 4 C-0.67 5.32 -0.34 6.64 0 8 C-1.32 7.67 -2.64 7.34 -4 7 C-4 7.66 -4 8.32 -4 9 C-4.66 8.67 -5.32 8.34 -6 8 C-5.566875 7.608125 -5.13375 7.21625 -4.6875 6.8125 C-2.73633776 4.71680722 -1.40989838 2.48410667 0 0 Z " fill="#0C8BD5" transform="translate(50,64)"/>
<path d="M0 0 C0.268125 0.639375 0.53625 1.27875 0.8125 1.9375 C1.88667752 4.33131686 1.88667752 4.33131686 5 5 C6.1875 8.0625 6.1875 8.0625 7 11 C2.79609368 9.49860488 1.10889262 6.82724957 -1 3 C-0.67 2.01 -0.34 1.02 0 0 Z " fill="#1B7FBA" transform="translate(43,235)"/>
<path d="M0 0 C2 0 4 0 6 0 C4.60667426 3.36720387 3.0210714 4.9859524 0 7 C-0.66 5.68 -1.32 4.36 -2 3 C-1.34 2.67 -0.68 2.34 0 2 C0 1.34 0 0.68 0 0 Z " fill="#131E33" transform="translate(171,141)"/>
<path d="M0 0 C0.66 0.33 1.32 0.66 2 1 C2.33 1.99 2.66 2.98 3 4 C1.59554165 6.2636564 -0.1967913 8.0208685 -2 10 C-2.66 9.67 -3.32 9.34 -4 9 C-4 8.34 -4 7.68 -4 7 C-3.34 7 -2.68 7 -2 7 C-1.855625 6.401875 -1.71125 5.80375 -1.5625 5.1875 C-1.1127561 3.43849596 -0.57107659 1.71322977 0 0 Z " fill="#1D243A" transform="translate(187,124)"/>
<path d="M0 0 C0.66 0.33 1.32 0.66 2 1 C0.36587557 2.70840281 -0.86906094 3.93453047 -3 5 C-3 5.99 -3 6.98 -3 8 C-4.98 8.99 -4.98 8.99 -7 10 C-7.66 9.34 -8.32 8.68 -9 8 C-6.03 5.36 -3.06 2.72 0 0 Z " fill="#DEE1E9" transform="translate(233,81)"/>
<path d="M0 0 C2 1 2 1 2 1 Z M-1 1 C-0.01 1.99 0.98 2.98 2 4 C-0.625 9.75 -0.625 9.75 -4 12 C-4 7.32674845 -2.92757363 5.17640953 -1 1 Z " fill="#131A34" transform="translate(210,97)"/>
<path d="M0 0 C3.81684226 1.55500981 6.19195732 4.03595495 9 7 C6.36 6.67 3.72 6.34 1 6 C0.67 4.02 0.34 2.04 0 0 Z " fill="#2B3351" transform="translate(249,35)"/>
<path d="M0 0 C1.14926266 0.95421808 2.29430541 1.91352045 3.4375 2.875 C4.07558594 3.40867188 4.71367187 3.94234375 5.37109375 4.4921875 C7 6 7 6 8 8 C4.62537285 7.45276317 2.91765 6.9451 0 5 C-0.1875 2.375 -0.1875 2.375 0 0 Z " fill="#227FC2" transform="translate(131,189)"/>
<path d="M0 0 C0.66 0.99 1.32 1.98 2 3 C0.8553125 3.6496875 0.8553125 3.6496875 -0.3125 4.3125 C-2.58093768 5.73686785 -4.2199723 7.03260097 -6 9 C-5.69381595 5.32579134 -5.24228216 4.21864487 -2.4375 1.6875 C-1.633125 1.130625 -0.82875 0.57375 0 0 Z " fill="#0B1026" transform="translate(215,154)"/>
<path d="M0 0 C0.66 0.33 1.32 0.66 2 1 C-2.46153846 7.92307692 -2.46153846 7.92307692 -5 10 C-5.66 10 -6.32 10 -7 10 C-5.6062718 5.56541027 -3.39417765 3.12621626 0 0 Z " fill="#C3EDF9" transform="translate(86,110)"/>
<path d="M0 0 C0.33 1.32 0.66 2.64 1 4 C-1.31 5.98 -3.62 7.96 -6 10 C-5.34 8.68 -4.68 7.36 -4 6 C-3.67 5.01 -3.34 4.02 -3 3 C-3.33 2.34 -3.66 1.68 -4 1 C-2 0 -2 0 0 0 Z " fill="#111830" transform="translate(202,110)"/>
<path d="M0 0 C0.99 0.33 1.98 0.66 3 1 C1.5682479 6.01113235 -0.98445693 7.94469549 -5 11 C-3.62845496 8.04590299 -2.01136276 5.55991624 0 3 C-0.66 2.67 -1.32 2.34 -2 2 C-1.34 2 -0.68 2 0 2 C0 1.34 0 0.68 0 0 Z " fill="#252F49" transform="translate(277,244)"/>
<path d="M0 0 C2.375 -0.1875 2.375 -0.1875 5 0 C5.66 0.99 6.32 1.98 7 3 C6.67 4.32 6.34 5.64 6 7 C4.02 4.69 2.04 2.38 0 0 Z " fill="#072354" transform="translate(151,208)"/>
<path d="M0 0 C0.33 0.99 0.66 1.98 1 3 C1.66 3.33 2.32 3.66 3 4 C1 6 1 6 -2.125 6.125 C-3.548125 6.063125 -3.548125 6.063125 -5 6 C-3.35 4.02 -1.7 2.04 0 0 Z " fill="#21253C" transform="translate(180,191)"/>
<path d="M0 0 C1.66666667 0 3.33333333 0 5 0 C4.75 2.375 4.75 2.375 4 5 C1.9375 6.3125 1.9375 6.3125 0 7 C0 4.66666667 0 2.33333333 0 0 Z " fill="#141B31" transform="translate(189,120)"/>
<path d="M0 0 C0.86625 0.556875 0.86625 0.556875 1.75 1.125 C1.42 1.785 1.09 2.445 0.75 3.125 C-0.24 3.125 -1.23 3.125 -2.25 3.125 C-3.58981486 3.4312434 -4.92511887 3.75951555 -6.25 4.125 C-6.25 3.135 -6.25 2.145 -6.25 1.125 C-2.80384615 -1.09038462 -2.80384615 -1.09038462 0 0 Z " fill="#0F122D" transform="translate(235.25,135.875)"/>
<path d="M0 0 C2.31 0.66 4.62 1.32 7 2 C6.34 3.32 5.68 4.64 5 6 C4.67 5.01 4.34 4.02 4 3 C2.35 3.33 0.7 3.66 -1 4 C-0.67 2.68 -0.34 1.36 0 0 Z " fill="#222945" transform="translate(175,134)"/>
<path d="M0 0 C0.99 0.33 1.98 0.66 3 1 C3.6875 3.0625 3.6875 3.0625 4 5 C1.50935112 5.68707555 -0.37886292 6 -3 6 C-3 4 -3 4 -1 2 C-0.67 1.34 -0.34 0.68 0 0 Z " fill="#151B37" transform="translate(180,130)"/>
<path d="M0 0 C0.99 1.32 1.98 2.64 3 4 C1 5 -1 6 -3 7 C-3.66 6.34 -4.32 5.68 -5 5 C-3.35 3.35 -1.7 1.7 0 0 Z " fill="#DFE5E8" transform="translate(194,123)"/>
<path d="M0 0 C1.98 0 3.96 0 6 0 C4.60667426 3.36720387 3.0210714 4.9859524 0 7 C0.185625 6.21625 0.37125 5.4325 0.5625 4.625 C1.25962266 2.02910225 1.25962266 2.02910225 0 0 Z " fill="#20283C" transform="translate(210,98)"/>
<path d="M0 0 C-1 1.5 -1 1.5 -3 3 C-5.71846235 3.27345479 -8.25677199 3.13491285 -11 3 C-10 1 -10 1 -7.1875 -0.1875 C-4.14038924 -0.96421451 -2.86250637 -1.10096399 0 0 Z " fill="#1187CC" transform="translate(134,13)"/>
<path d="M0 0 C0.33 0.99 0.66 1.98 1 3 C1.99 2.67 2.98 2.34 4 2 C7 6.625 7 6.625 7 10 C6.34 10 5.68 10 5 10 C4.67 8.02 4.34 6.04 4 4 C2.68 4 1.36 4 0 4 C0 2.68 0 1.36 0 0 Z " fill="#1986D2" transform="translate(91,150)"/>
<path d="M0 0 C0.99 0.33 1.98 0.66 3 1 C3 1.66 3 2.32 3 3 C3.66 3.33 4.32 3.66 5 4 C3.02 4.99 3.02 4.99 1 6 C-0.32 4.68 -1.64 3.36 -3 2 C-2.01 1.34 -1.02 0.68 0 0 Z " fill="#E9F0F0" transform="translate(98,147)"/>
<path d="M0 0 C0 3.38023517 -0.87455622 5.83468937 -2 9 C-3.32 8.67 -4.64 8.34 -6 8 C-2.25 2.25 -2.25 2.25 0 0 Z " fill="#DADEE5" transform="translate(201,115)"/>
<path d="M0 0 C0 0.33 0 0.66 0 1 C-0.66386719 1.12117188 -1.32773438 1.24234375 -2.01171875 1.3671875 C-6.53424459 2.22547708 -10.79938524 3.03971311 -15 5 C-14 2 -14 2 -12 0.8125 C-7.96195446 -0.28113733 -4.15684292 -0.16301345 0 0 Z " fill="#121A2F" transform="translate(243,79)"/>
<path d="M0 0 C3.63 0.33 7.26 0.66 11 1 C6.78370866 3.10814567 4.60209225 3.17700355 0 3 C0 2.01 0 1.02 0 0 Z " fill="#1679BD" transform="translate(136,9)"/>
<path d="M0 0 C1.33333333 0.66666667 2.66666667 1.33333333 4 2 C4.33 1.34 4.66 0.68 5 0 C5.99 0.33 6.98 0.66 8 1 C5.03 3.475 5.03 3.475 2 6 C1.34 5.67 0.68 5.34 0 5 C0 3.35 0 1.7 0 0 Z " fill="#293150" transform="translate(249,269)"/>
<path d="M0 0 C0.99 0.66 1.98 1.32 3 2 C3.1875 4.625 3.1875 4.625 3 7 C0.525 6.01 0.525 6.01 -2 5 C-1.34 3.35 -0.68 1.7 0 0 Z " fill="#0C1233" transform="translate(212,160)"/>
<path d="M0 0 C-0.33 1.65 -0.66 3.3 -1 5 C-1.99 4.67 -2.98 4.34 -4 4 C-4.33 4.66 -4.66 5.32 -5 6 C-5.66 5.34 -6.32 4.68 -7 4 C-6.01 3.67 -5.02 3.34 -4 3 C-4 2.34 -4 1.68 -4 1 C-2 0 -2 0 0 0 Z " fill="#1A233B" transform="translate(179,137)"/>
<path d="M0 0 C0.66 0.33 1.32 0.66 2 1 C1.67 1.66 1.34 2.32 1 3 C1.99 3.33 2.98 3.66 4 4 C2.02 4.99 2.02 4.99 0 6 C-0.99 5.01 -1.98 4.02 -3 3 C-2.01 2.01 -1.02 1.02 0 0 Z " fill="#14152D" transform="translate(236,129)"/>
<path d="M0 0 C0.99 0.33 1.98 0.66 3 1 C2.67 1.66 2.34 2.32 2 3 C1.34 3 0.68 3 0 3 C-0.33 4.98 -0.66 6.96 -1 9 C-1.33 9 -1.66 9 -2 9 C-2 6.36 -2 3.72 -2 1 C-1.34 0.67 -0.68 0.34 0 0 Z " fill="#128ED8" transform="translate(77,114)"/>
<path d="M0 0 C-3.96 3.465 -3.96 3.465 -8 7 C-8.33 6.34 -8.66 5.68 -9 5 C-8 2 -8 2 -5.625 0.25 C-3 -1 -3 -1 0 0 Z " fill="#2D89BB" transform="translate(88,110)"/>
<path d="M0 0 C0.66 1.32 1.32 2.64 2 4 C-1.11257569 4 -3.10765685 3.82638376 -6 3 C-6 2.34 -6 1.68 -6 1 C-3 0 -3 0 0 0 Z " fill="#0D93D2" transform="translate(67,258)"/>
<path d="M0 0 C0.33 0.66 0.66 1.32 1 2 C1.66 2 2.32 2 3 2 C3 1.34 3 0.68 3 0 C3.66 0 4.32 0 5 0 C3.63016497 3.16115776 3.0109362 3.9927092 0 6 C-0.66 5.34 -1.32 4.68 -2 4 C-1.34 2.68 -0.68 1.36 0 0 Z " fill="#0D1434" transform="translate(272,247)"/>
<path d="M0 0 C4.20626034 1.50223584 5.73900021 4.28550034 8 8 C4.21479387 7.45925627 2.40822445 5.92427254 0 3 C0 2.01 0 1.02 0 0 Z " fill="#2678B8" transform="translate(139,197)"/>
<path d="M0 0 C0.66 0 1.32 0 2 0 C2.33 0.99 2.66 1.98 3 3 C3.66 3.33 4.32 3.66 5 4 C5 4.66 5 5.32 5 6 C5.99 6.33 6.98 6.66 8 7 C7.34 7.66 6.68 8.32 6 9 C4.99105628 8.07213211 3.99309093 7.13231567 3 6.1875 C2.1646875 5.40439453 2.1646875 5.40439453 1.3125 4.60546875 C0 3 0 3 0 0 Z " fill="#052958" transform="translate(133,188)"/>
<path d="M0 0 C0.99 0.33 1.98 0.66 3 1 C2.34 2.32 1.68 3.64 1 5 C0.01 4.67 -0.98 4.34 -2 4 C-2 4.66 -2 5.32 -2 6 C-2.66 5.67 -3.32 5.34 -4 5 C-2.68 3.35 -1.36 1.7 0 0 Z " fill="#272C42" transform="translate(193,176)"/>
<path d="M0 0 C1.98 0 3.96 0 6 0 C6.66 1.32 7.32 2.64 8 4 C6.68 4.33 5.36 4.66 4 5 C2.68 3.35 1.36 1.7 0 0 Z " fill="#EBF0F3" transform="translate(103,156)"/>
<path d="M0 0 C0.66 0.33 1.32 0.66 2 1 C1.25 2.9375 1.25 2.9375 0 5 C-2.125 5.75 -2.125 5.75 -4 6 C-2.84826645 3.53199953 -1.95216435 1.95216435 0 0 Z " fill="#E5E9ED" transform="translate(186,132)"/>
<path d="M0 0 C3.98175544 2.10148204 6.35039045 4.36905358 9 8 C8.01 8 7.02 8 6 8 C5.34 7.01 4.68 6.02 4 5 C3.01 4.67 2.02 4.34 1 4 C0.3125 1.9375 0.3125 1.9375 0 0 Z " fill="#C8F5FD" transform="translate(103,111)"/>
<path d="M0 0 C1.32 0.33 2.64 0.66 4 1 C4 1.66 4 2.32 4 3 C5.32 3.33 6.64 3.66 8 4 C8 4.66 8 5.32 8 6 C4.74456771 5.65120368 3.98126893 4.97866739 1.75 2.4375 C1.1725 1.633125 0.595 0.82875 0 0 Z " fill="#D5D9DE" transform="translate(141,193)"/>
<path d="M0 0 C2.475 0.99 2.475 0.99 5 2 C3.68 3.32 2.36 4.64 1 6 C0.34 4.35 -0.32 2.7 -1 1 C-0.67 0.67 -0.34 0.34 0 0 Z " fill="#E2E5E5" transform="translate(170,195)"/>
<path d="M0 0 C0.99 0.66 1.98 1.32 3 2 C2.67 2.99 2.34 3.98 2 5 C0.02 5 -1.96 5 -4 5 C-2.68 3.35 -1.36 1.7 0 0 Z " fill="#1C2237" transform="translate(217,150)"/>
<path d="M0 0 C3 0 3 0 5 1 C4.3125 2.9375 4.3125 2.9375 3 5 C0.375 5.75 0.375 5.75 -2 6 C-1.01 5.01 -0.02 4.02 1 3 C0.67 2.01 0.34 1.02 0 0 Z " fill="#111B31" transform="translate(215,92)"/>
<path d="M0 0 C1.65 0 3.3 0 5 0 C5 0.99 5 1.98 5 3 C5.66 3 6.32 3 7 3 C7 3.66 7 4.32 7 5 C6.401875 4.67 5.80375 4.34 5.1875 4 C2.94613529 2.79212012 2.94613529 2.79212012 0 3 C0 2.01 0 1.02 0 0 Z " fill="#111B3A" transform="translate(222,21)"/>
<path d="M0 0 C1.14926266 0.95421808 2.29430541 1.91352045 3.4375 2.875 C4.07558594 3.40867188 4.71367187 3.94234375 5.37109375 4.4921875 C7 6 7 6 8 8 C5.525 7.01 5.525 7.01 3 6 C3 5.34 3 4.68 3 4 C2.01 3.67 1.02 3.34 0 3 C0 2.01 0 1.02 0 0 Z " fill="#0B1631" transform="translate(135,188)"/>
<path d="M0 0 C0.66 0 1.32 0 2 0 C2 0.66 2 1.32 2 2 C2.66 2.33 3.32 2.66 4 3 C3.01 3.99 2.02 4.98 1 6 C0.34 5.67 -0.32 5.34 -1 5 C-0.67 3.35 -0.34 1.7 0 0 Z " fill="#0C122C" transform="translate(182,189)"/>
<path d="M0 0 C3.57104439 1.87949705 5.54744301 3.17053157 7 7 C5.02 6.34 3.04 5.68 1 5 C0.67 3.35 0.34 1.7 0 0 Z " fill="#277DBC" transform="translate(97,155)"/>
<path d="M0 0 C0.99 0.33 1.98 0.66 3 1 C3.33 1.99 3.66 2.98 4 4 C1.33333333 4 -1.33333333 4 -4 4 C-2.68 2.68 -1.36 1.36 0 0 Z " fill="#1A1E33" transform="translate(227,139)"/>
<path d="M0 0 C0.66 0 1.32 0 2 0 C2 2.97 2 5.94 2 9 C1.01 8.34 0.02 7.68 -1 7 C-0.67 4.69 -0.34 2.38 0 0 Z " fill="#121B37" transform="translate(306,121)"/>
<path d="M0 0 C0.33 0.66 0.66 1.32 1 2 C1.99 2.33 2.98 2.66 4 3 C2.35 4.32 0.7 5.64 -1 7 C-1 4.37886292 -0.68707555 2.49064888 0 0 Z " fill="#E6E8ED" transform="translate(239,119)"/>
<path d="M0 0 C2.125 0.9375 2.125 0.9375 4 2 C3.34 3.32 2.68 4.64 2 6 C1.67 5.34 1.34 4.68 1 4 C0.01 4 -0.98 4 -2 4 C-2 3.01 -2 2.02 -2 1 C-1.34 0.67 -0.68 0.34 0 0 Z " fill="#151B37" transform="translate(220,86)"/>
<path d="M0 0 C3 0 3 0 6 2 C5.67 2.66 5.34 3.32 5 4 C4.01 4.33 3.02 4.66 2 5 C1.01 3.68 0.02 2.36 -1 1 C-0.67 0.67 -0.34 0.34 0 0 Z " fill="#242D4F" transform="translate(280,69)"/>
<path d="M0 0 C0.33 0.66 0.66 1.32 1 2 C3.52733235 2.65555119 3.52733235 2.65555119 6 3 C6 3.33 6 3.66 6 4 C2.7 3.67 -0.6 3.34 -4 3 C-3 1 -3 1 0 0 Z " fill="#08102C" transform="translate(203,12)"/>
<path d="M0 0 C2.125 0.9375 2.125 0.9375 4 2 C3.01 3.485 3.01 3.485 2 5 C1.01 5 0.02 5 -1 5 C-1.33 3.68 -1.66 2.36 -2 1 C-1.34 0.67 -0.68 0.34 0 0 Z " fill="#0A102D" transform="translate(198,173)"/>
<path d="M0 0 C2.31 1.98 4.62 3.96 7 6 C6.34 6.66 5.68 7.32 5 8 C0 2.25 0 2.25 0 0 Z " fill="#256187" transform="translate(79,134)"/>
<path d="M0 0 C0.99 0.33 1.98 0.66 3 1 C3 1.66 3 2.32 3 3 C2.21625 3.309375 1.4325 3.61875 0.625 3.9375 C-1.92330128 4.92875038 -1.92330128 4.92875038 -4 6 C-2.84826645 3.53199953 -1.95216435 1.95216435 0 0 Z " fill="#DCE2E8" transform="translate(211,104)"/>
<path d="M0 0 C1.65 0.33 3.3 0.66 5 1 C5.33 2.32 5.66 3.64 6 5 C4.02 4.34 2.04 3.68 0 3 C0 2.01 0 1.02 0 0 Z " fill="#141A32" transform="translate(251,83)"/>
<path d="M0 0 C1.32 1.32 2.64 2.64 4 4 C3 6 3 6 1 7 C0.01 6.01 -0.98 5.02 -2 4 C-1.33333333 2.66666667 -0.66666667 1.33333333 0 0 Z " fill="#232F51" transform="translate(286,73)"/>
<path d="M0 0 C3.57104439 1.87949705 5.54744301 3.17053157 7 7 C6.01 7.33 5.02 7.66 4 8 C0 2.25 0 2.25 0 0 Z " fill="#0F1738" transform="translate(266,51)"/>
<path d="M0 0 C5.75 1.75 5.75 1.75 8 4 C5.6875 4.6875 5.6875 4.6875 3 5 C1.1875 3.6875 1.1875 3.6875 0 2 C0 1.34 0 0.68 0 0 Z " fill="#1F2A49" transform="translate(227,22)"/>
</svg>
